<svg width="32" height="32" viewBox="0 0 32 32" xmlns="http://www.w3.org/2000/svg">
  <!-- 背景 -->
  <rect width="32" height="32" rx="6" fill="#1a1a1a"/>
  
  <!-- メインの炎 -->
  <path d="M16 28 C12 26, 10 22, 12 18 C13 15, 14 12, 16 8 C18 12, 19 15, 20 18 C22 22, 20 26, 16 28" fill="#f97316"/>
  
  <!-- 左の炎 -->
  <path d="M11 26 C8 24, 7 21, 9 18 C10 16, 11 14, 12 11 C13 14, 14 16, 15 18 C16 21, 15 24, 11 26" fill="#ea580c"/>
  
  <!-- 右の炎 -->
  <path d="M21 26 C24 24, 25 21, 23 18 C22 16, 21 14, 20 11 C19 14, 18 16, 17 18 C16 21, 17 24, 21 26" fill="#ea580c"/>
  
  <!-- 内側の明るい炎 -->
  <path d="M16 25 C13 24, 12 21, 13 19 C14 17, 15 15, 16 12 C17 15, 18 17, 19 19 C20 21, 19 24, 16 25" fill="#fbbf24"/>
  
  <!-- 炎の核心 -->
  <path d="M16 22 C14.5 21.5, 14 20, 14.5 18.5 C15 17.5, 15.5 16.5, 16 15 C16.5 16.5, 17 17.5, 17.5 18.5 C18 20, 17.5 21.5, 16 22" fill="#fef3c7"/>
</svg>